HIERARCHY
ROOT Hips
{
	OFFSET 51.547699 -45.188816 97.038490
	CHANNELS 6 Xposition Yposition Zposition Xrotation Yrotation Zrotation
	JOINT spine
	{
		OFFSET 0.000000 -0.458069 7.965683
		CHANNELS 3 Xrotation Yrotation Zrotation
		JOINT spine1
		{
			OFFSET 0.000000 -0.000004 10.243103
			CHANNELS 3 Xrotation Yrotation Zrotation
			JOINT spine2
			{
				OFFSET 0.000000 0.000000 9.814751
				CHANNELS 3 Xrotation Yrotation Zrotation
				JOINT Neck
				{
					OFFSET 0.000000 -1.201385 25.198593
					CHANNELS 3 Xrotation Yrotation Zrotation
					JOINT Head
					{
						OFFSET 0.000000 -0.000004 7.613144
						CHANNELS 3 Xrotation Yrotation Zrotation
						End Site
						{
							OFFSET 0.000000 6.077328 18.428116
						}
					}
				}
				JOINT RightShoulder
				{
					OFFSET -4.132698 0.575447 10.599213
					CHANNELS 3 Xrotation Yrotation Zrotation
					JOINT RightArm
					{
						OFFSET 0.000000 0.000000 13.901794
						CHANNELS 3 Xrotation Yrotation Zrotation
						JOINT RightArmRoll
						{
							OFFSET 0.000000 -0.000004 7.017883
							CHANNELS 3 Xrotation Yrotation Zrotation
							JOINT RightForeArm
							{
								OFFSET 0.000000 -0.000004 20.440598
								CHANNELS 3 Xrotation Yrotation Zrotation
								JOINT RightForeArmRoll
								{
									OFFSET 0.000000 0.000000 7.875153
									CHANNELS 3 Xrotation Yrotation Zrotation
									JOINT RightHand
									{
										OFFSET 0.000000 -0.000004 15.803696
										CHANNELS 3 Xrotation Yrotation Zrotation
										End Site
										{
											OFFSET 0.000000 0.000000 0.100006
										}
									}
								}
							}
						}
					}
				}
				JOINT LeftShoulder
				{
					OFFSET 4.132698 0.575447 10.599213
					CHANNELS 3 Xrotation Yrotation Zrotation
					JOINT LeftArm
					{
						OFFSET 0.000000 0.000000 13.901794
						CHANNELS 3 Xrotation Yrotation Zrotation
						JOINT LeftArmRoll
						{
							OFFSET 0.000000 -0.000004 7.017883
							CHANNELS 3 Xrotation Yrotation Zrotation
							JOINT LeftForeArm
							{
								OFFSET 0.000000 -0.000004 20.440598
								CHANNELS 3 Xrotation Yrotation Zrotation
								JOINT LeftForeArmRoll
								{
									OFFSET 0.000000 0.000000 7.875153
									CHANNELS 3 Xrotation Yrotation Zrotation
									JOINT LeftHand
									{
										OFFSET 0.000000 -0.000004 15.803696
										CHANNELS 3 Xrotation Yrotation Zrotation
										End Site
										{
											OFFSET 0.000000 0.000000 0.100006
										}
									}
								}
							}
						}
					}
				}
			}
		}
	}
	JOINT RightUpLeg
	{
		OFFSET -7.060478 1.086090 -1.294701
		CHANNELS 3 Xrotation Yrotation Zrotation
		JOINT RightUpLegRoll
		{
			OFFSET 0.000000 -0.000004 18.530800
			CHANNELS 3 Xrotation Yrotation Zrotation
			JOINT RightLeg
			{
				OFFSET 0.000000 0.000004 -22.947601
				CHANNELS 3 Xrotation Yrotation Zrotation
				JOINT RightLegRoll
				{
					OFFSET 0.000000 -0.000004 23.022598
					CHANNELS 3 Xrotation Yrotation Zrotation
					JOINT RightFoot
					{
						OFFSET 0.000000 -0.000004 19.162514
						CHANNELS 3 Xrotation Yrotation Zrotation
						JOINT RightToeBase
						{
							OFFSET 0.000000 0.000000 16.018799
							CHANNELS 3 Xrotation Yrotation Zrotation
							End Site
							{
								OFFSET 0.006790 0.894203 7.757828
							}
						}
					}
				}
			}
		}
	}
	JOINT LeftUpLeg
	{
		OFFSET 7.060478 1.086090 -1.294701
		CHANNELS 3 Xrotation Yrotation Zrotation
		JOINT LeftUpLegRoll
		{
			OFFSET 0.000000 -0.000004 18.530899
			CHANNELS 3 Xrotation Yrotation Zrotation
			JOINT LeftLeg
			{
				OFFSET 0.000000 -0.000004 22.947510
				CHANNELS 3 Xrotation Yrotation Zrotation
				JOINT LeftLegRoll
				{
					OFFSET 0.000000 -0.000004 23.235504
					CHANNELS 3 Xrotation Yrotation Zrotation
					JOINT LeftFoot
					{
						OFFSET 0.000000 -0.000004 18.949600
						CHANNELS 3 Xrotation Yrotation Zrotation
						JOINT LeftToeBase
						{
							OFFSET 0.000000 0.000000 16.018799
							CHANNELS 3 Xrotation Yrotation Zrotation
							End Site
							{
								OFFSET -0.030430 0.894203 7.757828
							}
						}
					}
				}
			}
		}
	}
}
MOTION
Frames: 6
Frame Time: 0.041667
51.734299 -21.228012 83.796684 27.085002 -1.188006 -3.299596 5.147292 -0.323988 -0.467194 14.295061 -0.689027 -0.905648 15.940130 -0.699826 -0.897236 -32.855628 21.803468 3.388391 15.784769 -21.629775 -1.472766 -9.510752 -45.209241 -10.292502 -51.072763 -147.705942 -69.294257 -0.000002 -0.000003 0.000002 46.189878 -10.803004 2.193605 -0.000001 -0.000001 -2.999994 -5.000374 -7.999321 0.000111 -20.061509 56.857712 23.735966 111.879612 44.534223 -82.379909 -0.000000 0.000008 -0.000008 61.663979 13.735507 -4.364809 0.000018 -0.000008 3.000004 -4.999757 7.998920 -0.000030 -69.536066 -174.516866 -1.209043 179.999991 0.000005 -0.678000 122.582293 -2.909755 -3.226457 -0.000004 -0.000004 1.050850 74.128487 6.675504 2.374583 28.045735 -7.246711 2.516030 -71.121503 169.436530 0.983241 0.000008 -0.000005 -0.593497 -55.569893 3.837848 3.324594 0.000001 -0.000001 -0.937238 69.736894 -6.875591 -2.116065 27.820680 7.221753 -3.450467 
51.723305 -21.306107 83.981079 26.971124 -1.164600 -3.335947 5.128089 -0.319896 -0.465994 14.256631 -0.681103 -0.904693 15.901696 -0.691891 -0.896382 -33.015219 21.720912 3.341848 15.722395 -21.601943 -1.532300 -9.519774 -45.359116 -10.315046 -51.208390 -147.978248 -69.286552 0.000002 -0.000004 0.000001 45.243426 -10.919438 2.196762 0.000000 -0.000000 -2.999990 -5.000371 -7.999319 0.000108 -19.997040 56.811686 23.659135 111.974784 44.281459 -82.609799 0.000001 0.000008 -0.000009 60.900706 13.986925 -4.490897 0.000017 -0.000008 3.000002 -4.999757 7.998919 -0.000034 -69.091434 -174.592640 -1.225653 179.999991 0.000005 -0.678000 123.042252 -2.906635 -3.206685 -0.000006 -0.000004 1.038000 74.003754 6.679935 2.370124 28.021512 -7.246898 2.530911 -70.676236 169.438169 0.988801 0.000007 -0.000004 -0.594555 -55.134964 3.847997 3.304484 0.000001 -0.000001 -0.923551 69.633949 -6.879387 -2.113731 27.831610 7.220501 -3.466153 
51.722099 -21.401516 84.172386 26.857847 -1.140520 -3.371563 5.108497 -0.315855 -0.464905 14.217507 -0.673296 -0.903906 15.862570 -0.684076 -0.895705 -33.168734 21.635427 3.290480 15.647256 -21.570832 -1.596873 -9.526920 -45.511265 -10.335312 -51.341552 -148.245609 -69.277475 0.000002 -0.000003 0.000003 44.299620 -11.032329 2.195851 -0.000000 -0.000001 -2.999987 -5.000372 -7.999321 0.000107 -19.930606 56.763489 23.579961 112.073863 44.027652 -82.846773 0.000000 0.000008 -0.000008 60.129003 14.237347 -4.610034 0.000019 -0.000008 3.000002 -4.999760 7.998922 -0.000035 -68.646379 -174.668523 -1.241745 179.999991 0.000005 -0.678000 123.504287 -2.903080 -3.186982 -0.000004 -0.000005 1.025140 73.877751 6.684407 2.365759 27.997575 -7.247100 2.545851 -70.231277 169.440300 0.994937 0.000012 -0.000004 -0.595611 -54.699283 3.857144 3.283723 0.000001 -0.000001 -0.910005 69.532740 -6.883128 -2.111488 27.839532 7.219589 -3.477420 
51.706200 -21.480118 84.353188 26.745076 -1.115709 -3.406470 5.088444 -0.311903 -0.463971 14.177381 -0.665679 -0.903352 15.822536 -0.676453 -0.895251 -33.318592 21.546947 3.235920 15.565055 -21.537017 -1.664013 -9.531937 -45.664596 -10.352933 -51.470974 -148.508229 -69.265461 -0.000000 -0.000003 0.000002 43.360196 -11.141575 2.190796 0.000000 0.000000 -2.999990 -5.000371 -7.999319 0.000107 -19.861867 56.713827 23.497980 112.176165 43.773559 -83.090836 -0.000002 0.000008 -0.000008 59.348115 14.485836 -4.721304 0.000020 -0.000008 2.999997 -4.999757 7.998918 -0.000034 -68.201071 -174.743806 -1.258789 179.999991 0.000006 -0.678001 123.967892 -2.899086 -3.166373 -0.000005 -0.000004 1.012269 73.750668 6.688830 2.361563 27.973952 -7.247312 2.560728 -69.786788 169.443073 1.000999 0.000012 -0.000004 -0.596654 -54.263534 3.865230 3.262258 0.000000 -0.000001 -0.896659 69.434603 -6.886785 -2.109350 27.843341 7.219150 -3.482673 
51.712898 -21.560318 84.541588 26.632999 -1.090104 -3.440680 5.067874 -0.308083 -0.463232 14.136256 -0.658323 -0.903092 15.781400 -0.669095 -0.895095 -33.467090 21.455864 3.180213 15.481358 -21.500850 -1.731385 -9.534645 -45.818241 -10.367618 -51.595310 -148.766260 -69.248645 0.000001 -0.000003 0.000002 42.426727 -11.247132 2.181494 -0.000001 0.000000 -2.999989 -5.000370 -7.999319 0.000112 -19.790654 56.663738 23.412946 112.281999 43.519606 -83.343437 0.000002 0.000008 -0.000008 58.557534 14.731443 -4.824131 0.000022 -0.000003 3.000001 -4.999760 7.998921 -0.000035 -67.755436 -174.819293 -1.274834 179.999991 0.000004 -0.678001 124.433001 -2.894632 -3.145881 -0.000006 -0.000004 0.999392 73.622513 6.693292 2.357452 27.950925 -7.247538 2.575500 -69.343393 169.445942 1.008336 0.000011 -0.000004 -0.597674 -53.828410 3.872153 3.239996 -0.000000 -0.000001 -0.883574 69.340702 -6.890334 -2.107234 27.841938 7.219314 -3.480319 
51.701000 -21.649506 84.723587 26.521526 -1.063639 -3.474206 5.046702 -0.304435 -0.462729 14.093931 -0.651300 -0.903192 15.739088 -0.662074 -0.895297 -33.616422 21.362398 3.124941 15.401715 -21.462775 -1.796641 -9.534854 -45.971411 -10.379107 -51.714391 -149.018690 -69.227253 -0.000001 -0.000004 0.000003 41.500776 -11.348922 2.167867 0.000001 -0.000002 -2.999993 -5.000368 -7.999322 0.000107 -19.716543 56.614198 23.324382 112.390742 43.266578 -83.604405 0.000001 0.000008 -0.000007 57.756353 14.973272 -4.917701 0.000020 -0.000006 3.000003 -4.999755 7.998919 -0.000034 -67.309670 -174.894288 -1.291041 179.999991 0.000006 -0.678001 124.899148 -2.890295 -3.125307 -0.000006 -0.000004 0.986516 73.493607 6.697734 2.353391 27.928720 -7.247772 2.590068 -68.901234 169.449029 1.016714 0.000011 -0.000004 -0.598660 -53.394833 3.877795 3.216898 0.000001 -0.000001 -0.870809 69.252272 -6.893728 -2.105260 27.834213 7.220205 -3.468761 
